<svg xmlns="http://www.w3.org/2000/svg" viewBox="0 0 512 512">
  <path fill="#4A90E2" d="M32 32c17.7 0 32 14.3 32 32V400c0 8.8 7.2 16 16 16H480c17.7 0 32 14.3 32 32s-14.3 32-32 32H80c-44.2 0-80-35.8-80-80V64C0 46.3 14.3 32 32 32zm96 96c0-17.7 14.3-32 32-32s32 14.3 32 32V320c0 17.7-14.3 32-32 32s-32-14.3-32-32V128zm96-64c17.7 0 32 14.3 32 32V320c0 17.7-14.3 32-32 32s-32-14.3-32-32V96c0-17.7 14.3-32 32-32zm128 32c0-17.7 14.3-32 32-32s32 14.3 32 32V320c0 17.7-14.3 32-32 32s-32-14.3-32-32V128zm96-32c17.7 0 32 14.3 32 32V320c0 17.7-14.3 32-32 32s-32-14.3-32-32V96c0-17.7 14.3-32 32-32z"/>
</svg>

